<!--
  GENERATED by scripts/build-favicons.ts — edit icon-gy.svg / icon-wp.svg instead.

  The pre-hydration favicon: both marks in one file, picked by the OS color
  scheme. components/FaviconSwitcher.tsx swaps in the single-skin file once the
  visitor's explicit theme choice is known.
-->
<svg xmlns="http://www.w3.org/2000/svg" viewBox="0 0 64 64" width="64" height="64">
  <style>
    .skin-gy { display: none }
    @media (prefers-color-scheme: dark) {
      .skin-wp { display: none }
      .skin-gy { display: inline }
    }
  </style>
  <g class="skin-wp">
    <circle cx="32" cy="32" r="30.1" fill="#f5f5f3" stroke="#2e5d8c" stroke-width="3.8" />
    
      <!-- Georgia Bold "R", cap height 36, baseline y=50 -->
      <g transform="translate(9.59 50) scale(0.36)" fill="#2e5d8c">
        <path
          d="M119.66 0.00H81.32Q71.39 -15.22 64.80 -24.24Q58.21 -33.26 48.41 -45.10H44.54V-14.73Q44.54 -12.19 45.49 -10.43Q46.44 -8.67 49.12 -7.47Q50.46 -6.91 53.31 -6.31Q56.17 -5.71 58.21 -5.50V0.00H4.86V-5.50Q6.91 -5.71 10.25 -6.10Q13.60 -6.48 15.01 -7.05Q17.69 -8.17 18.60 -9.90Q19.52 -11.63 19.52 -14.31V-84.85Q19.52 -87.39 18.75 -89.08Q17.97 -90.77 15.01 -92.04Q12.76 -92.95 9.69 -93.59Q6.62 -94.22 4.86 -94.50V-100.00H60.96Q79.77 -100.00 89.53 -94.12Q99.30 -88.23 99.30 -76.32Q99.30 -65.82 93.27 -59.44Q87.24 -53.07 74.91 -49.47Q79.70 -43.27 86.08 -35.10Q92.46 -26.92 99.37 -18.39Q101.55 -15.64 105.32 -11.66Q109.09 -7.68 111.98 -6.77Q113.60 -6.27 116.10 -5.92Q118.60 -5.57 119.66 -5.50ZM71.67 -74.35Q71.67 -84.36 66.07 -88.97Q60.47 -93.59 50.11 -93.59H44.54V-51.73H49.89Q60.25 -51.73 65.96 -57.15Q71.67 -62.58 71.67 -74.35Z"
        />
      </g>
  </g>
  <g class="skin-gy">
    <defs>
        <linearGradient id="gy-wax" x1="26" y1="0" x2="38" y2="0" gradientUnits="userSpaceOnUse">
          <stop offset="0" stop-color="#b9b096" />
          <stop offset="0.45" stop-color="#efe9d4" />
          <stop offset="1" stop-color="#b9b096" />
        </linearGradient>
        <radialGradient id="gy-flame" cx="32" cy="27" r="12" gradientUnits="userSpaceOnUse">
          <stop offset="0" stop-color="#fff3cf" />
          <stop offset="0.5" stop-color="#ffc45e" />
          <stop offset="1" stop-color="#f08b2e" />
        </radialGradient>
        <!-- falls off to fully transparent; a flat-opacity circle reads as a
             hard-edged brown disc once rasterized down to 16px -->
        <radialGradient id="gy-glow" cx="32" cy="26" r="21" gradientUnits="userSpaceOnUse">
          <stop offset="0" stop-color="#ffc45e" stop-opacity="0.3" />
          <stop offset="0.55" stop-color="#ffc45e" stop-opacity="0.12" />
          <stop offset="1" stop-color="#ffc45e" stop-opacity="0" />
        </radialGradient>
      </defs>
    
      <rect width="64" height="64" rx="10" fill="#0b1120" />
    
      <circle cx="32" cy="26" r="21" fill="url(#gy-glow)" />
    
      <rect x="25" y="34" width="14" height="30" rx="3" fill="url(#gy-wax)" />
    
      <path d="M32 8c7 9 10 12 10 18a10 10 0 0 1-20 0c0-6 3-9 10-18Z" fill="url(#gy-flame)" />
  </g>
</svg>
